inDegrees=yes
name=ik_S41_A01_T02
DataType=double
version=3
OpenSimVersion=4.3-2021-08-27-4bc7ad9
endheader
time	pelvis_tilt	pelvis_list	pelvis_rotation	pelvis_tx	pelvis_ty	pelvis_tz	hip_flexion_r	hip_adduction_r	hip_rotation_r	knee_angle_r	knee_angle_r_beta	ankle_angle_r	subtalar_angle_r	mtp_angle_r	hip_flexion_l	hip_adduction_l	hip_rotation_l	knee_angle_l	knee_angle_l_beta	ankle_angle_l	subtalar_angle_l	mtp_angle_l	lumbar_extension	lumbar_bending	lumbar_rotation	arm_flex_r	arm_add_r	arm_rot_r	elbow_flex_r	pro_sup_r	wrist_flex_r	wrist_dev_r	arm_flex_l	arm_add_l	arm_rot_l	elbow_flex_l	pro_sup_l	wrist_flex_l	wrist_dev_l
27.7999999999995	0.4314312407840976	-1.082690322715876	-90.75010201533559	0	0.9399999999999999	0	24.31293643894109	4.437029148916837	1.971957141738824	-4.709691849181	-0.08219962952254865	0	0	0	-11.18338734377203	2.127702246498442	-8.53116614660242	5.760238361360941	0.1005351251054313	0	0	0	0	0	0	44.01129313701647	-44.01129313701642	4.993411658957103	84.9111519775698	85.00658861505396	0	0	44.01129313701647	-44.01129313701642	4.993411658957103	84.9111519775698	85.00658861505261	0	0
27.8199999999995	0.5054266249262911	-1.873380090328836	-90.06808762317698	0	0.9399999999999999	0	23.50506448014111	4.123603013694086	1.315677919512678	-4.263854321338312	-0.07441829673274185	0	0	0	-12.33998562404391	1.889583766249153	-8.773902140740914	5.789299324278268	0.1010423345921387	0	0	0	0	0	0	44.01139564159517	-44.01139564159513	4.993413030959871	84.91117048028222	85.0065872430512	0	0	44.01139564159517	-44.01139564159513	4.993413030959871	84.91117048028222	85.00658724304985	0	0
27.8399999999995	0.5205862447422042	-2.321630780048952	-89.69550221815341	0	0.9399999999999999	0	18.718608576849	3.217890498108504	-2.956365856603539	-5.460960898519189	-0.09531174800182778	0	0	0	-12.94225340419532	1.324932447145998	-9.335309547261451	9.732168735597266	0.1698583877958258	0	0	0	0	0	0	44.01706393973185	-44.0170639397318	4.993478114620862	84.91204819262292	85.00652215939239	0	0	44.01706393973185	-44.0170639397318	4.993478114620862	84.91204819262292	85.00652215939105	0	0
27.85999999999949	0.3026333170250803	-3.794595544727525	-88.94057311876138	0	0.9399999999999999	0	15.14122956093602	2.139838548531914	-8.843829166959711	-3.900157004309651	-0.06807058106992209	0	0	0	-13.83473155362149	0.8836210493529399	-9.259952839763255	10.41503492897615	0.1817766512208476	0	0	0	0	0	0	44.02096795405107	-44.02096795405102	4.993523088362917	84.91265470442971	85.00647718565183	0	0	44.02096795405107	-44.02096795405102	4.993523088362917	84.91265470442971	85.00647718565048	0	0
27.87999999999949	0.07671496004856279	-3.820402084126558	-88.66311795720216	0	0.9399999999999999	0	15.84082644350669	2.547215165206166	-2.596588405035272	-3.137326786055826	-0.05475668212768588	0	0	0	-14.08740561567122	0.006911818529510235	-9.262415962008086	15.14003446089973	0.2642434502081049	0	0	0	0	0	0	44.02667880691324	-44.0266788069132	4.993588888328395	84.91354207679592	85.00641138568854	0	0	44.02667880691324	-44.0266788069132	4.993588888328395	84.91354207679592	85.00641138568719	0	0
27.89999999999949	-0.004655203696187304	-3.743372199854839	-88.61805434950612	0	0.9399999999999999	0	17.07756667701794	3.676981320902988	7.97306556788995	-3.256203836138437	-0.05683147805668564	0	0	0	-12.85276104163339	-0.3648221317080217	-10.16832063571369	17.73993531882592	0.3096202804043423	0	0	0	0	0	0	44.0306177383795	-44.03061773837945	4.993635546175161	84.91417130032887	85.00636472784329	0	0	44.0306177383795	-44.03061773837945	4.993635546175161	84.91417130032887	85.00636472784193	0	0
27.91999999999949	-0.09190116021042355	-3.966617311898081	-88.23511982379355	0	0.9399999999999999	0	15.89773028956604	3.772329489029087	10.41418309007728	-3.736545368682849	-0.06521501933366113	0	0	0	-11.32435185097138	-1.096983417024002	-10.96379350242132	22.44791517683144	0.3917900300441138	0	0	0	0	0	0	44.03121681025215	-44.0312168102521	4.993643459908902	84.91427802425994	85.00635681410988	0	0	44.03121681025215	-44.0312168102521	4.993643459908902	84.91427802425994	85.00635681410851	0	0
27.93999999999949	-0.1564709155979529	-4.181329539987408	-87.63302219194691	0	0.9399999999999999	0	13.66790546421787	2.650183027188439	5.335034502820407	-3.566009208383642	-0.06223860184273113	0	0	0	-9.04131766249313	-2.047260066004529	-10.8513612556985	28.30290729976899	0.4939789202677066	0	0	0	0	0	0	44.03682158613307	-44.03682158613302	4.993706999119734	84.9151349082541	85.00629327490114	0	0	44.03682158613307	-44.03682158613302	4.993706999119734	84.9151349082541	85.00629327489978	0	0
27.95999999999949	-0.3055895015820188	-4.130707859682348	-87.1706812267839	0	0.9399999999999999	0	11.78643972614461	3.411064566453857	1.780281539404482	-4.006730069725401	-0.06993063195537022	0	0	0	-6.092921712600987	-2.961581843472013	-9.768408581686485	34.423146590394	0.6007972468990351	0	0	0	0	0	0	44.04174447028683	-44.04174447028679	4.99376243186321	84.91588246915565	85.00623784215948	0	0	44.04174447028683	-44.04174447028679	4.99376243186321	84.91588246915565	85.00623784215811	0	0
27.97999999999949	-0.5116569858076737	-4.136202136976919	-86.72320183555628	0	0.9399999999999999	0	10.02435290955154	4.464438747631292	-0.4715785447966276	-3.991038309290816	-0.06965675907035253	0	0	0	-3.19419769173529	-3.925146706417098	-8.563370204665235	40.36224016581546	0.7044539843741818	0	0	0	0	0	0	44.04802343179184	-44.0480234317918	4.993832259370715	84.91682415649458	85.00616801465425	0	0	44.04802343179184	-44.0480234317918	4.993832259370715	84.91682415649458	85.00616801465289	0	0
